<svg width="52" height="60" viewBox="0 0 52 60" fill="none" xmlns="http://www.w3.org/2000/svg">
<g filter="url(#filter0_b_1347_15448)">
<path d="M21.0028 2.88301C24.0954 1.09882 27.9046 1.09882 30.9972 2.88301L46.9972 12.1138C50.0928 13.8997 52 17.2018 52 20.7756V39.2244C52 42.7982 50.0928 46.1003 46.9972 47.8862L30.9972 57.117C27.9046 58.9012 24.0954 58.9012 21.0028 57.117L5.00277 47.8862C1.9072 46.1003 0 42.7982 0 39.2244V20.7756C0 17.2018 1.9072 13.8997 5.00278 12.1138L21.0028 2.88301Z" fill="white" fill-opacity="0.5"/>
<path d="M21.2526 3.31611C24.1906 1.62112 27.8094 1.62112 30.7474 3.31611L46.7474 12.5469C49.6882 14.2435 51.5 17.3805 51.5 20.7756V39.2244C51.5 42.6195 49.6882 45.7565 46.7474 47.4531L30.7474 56.6839C27.8094 58.3789 24.1906 58.3789 21.2526 56.6839L5.25264 47.4531C2.31184 45.7565 0.5 42.6195 0.5 39.2244V20.7756C0.5 17.3805 2.31184 14.2435 5.25264 12.5469L21.2526 3.31611Z" stroke="white"/>
</g>
<path d="M12.8 31.0653C12.9031 30.6804 12.9803 30.285 13.1152 29.9107C13.4535 28.9816 14.065 28.1765 14.8692 27.6011C15.6734 27.0256 16.6327 26.7068 17.6214 26.6865C18.7623 26.6668 19.9048 26.6865 21.0473 26.6865H21.317C21.4927 27.3168 21.5958 27.9334 21.8397 28.4865C22.0837 29.0395 22.467 29.5153 22.7837 30.0168C19.6942 31.1986 18.4426 33.5623 18.6926 36.8547C16.6876 36.7287 14.7072 36.3452 12.8 35.7138V31.0653Z" fill="#00C293"/>
<path d="M19.6078 37.3442C19.6078 36.6911 19.5957 36.0381 19.6078 35.3851C19.6502 33.5047 20.9624 31.6562 22.7443 31.0259C23.2663 30.8326 23.8143 30.7187 24.3701 30.6881C25.6489 30.6277 26.9299 30.6333 28.2081 30.7047C29.4396 30.7815 30.5964 31.3212 31.4466 32.2154C32.2967 33.1096 32.7772 34.2922 32.7916 35.526C32.828 36.8411 32.7916 38.1563 32.8052 39.4654C32.8052 39.6169 32.7295 39.6715 32.6143 39.726C31.6249 40.1848 30.5748 40.4991 29.496 40.6594C27.7632 40.937 25.9999 40.9696 24.258 40.7563C22.7343 40.5683 21.231 40.2412 19.7669 39.779C19.6154 39.7336 19.5927 39.6518 19.5942 39.5169C19.5942 38.7942 19.5942 38.073 19.5942 37.3502L19.6078 37.3442Z" fill="#00C293"/>
<path d="M33.7174 36.9138C33.7174 36.7289 33.7174 36.5941 33.7174 36.4592C33.7174 35.6001 33.7174 34.741 33.4507 33.9107C32.8446 32.0516 31.6128 30.7895 29.79 30.0955C29.7112 30.0652 29.6294 30.0394 29.5112 29.9985C30.4084 29.1292 30.9332 27.9456 30.9749 26.697C31.0567 26.6894 31.1264 26.6773 31.187 26.6773C32.278 26.6773 33.3704 26.6697 34.4614 26.6773C36.7599 26.7121 38.8888 28.6197 39.1373 30.9031C39.2191 31.6501 39.1903 32.4183 39.1994 33.1667C39.2085 33.9152 39.1994 34.6622 39.1994 35.4092C39.2099 35.4795 39.1953 35.5513 39.1582 35.612C39.121 35.6726 39.0638 35.7183 38.9964 35.741C38.0687 36.1707 37.0854 36.468 36.0751 36.6244C35.3175 36.7471 34.5356 36.8153 33.7174 36.9138Z" fill="#00C293"/>
<path d="M22.3246 26.5319C22.3246 26.0221 22.4254 25.5173 22.6211 25.0466C22.8168 24.5759 23.1036 24.1486 23.4651 23.7891C23.8266 23.4296 24.2555 23.1451 24.7273 22.952C25.1991 22.7588 25.7044 22.6608 26.2141 22.6636C26.7238 22.6666 27.228 22.77 27.6977 22.9678C28.1675 23.1657 28.5937 23.4541 28.9519 23.8167C29.3102 24.1793 29.5935 24.609 29.7856 25.0811C29.9778 25.5532 30.075 26.0585 30.0718 26.5682C30.0626 27.593 29.6476 28.5723 28.9177 29.2917C28.1878 30.011 27.2026 30.4118 26.1778 30.4061C25.6703 30.4051 25.1679 30.3041 24.6995 30.1088C24.2311 29.9135 23.8058 29.6277 23.4479 29.2679C23.09 28.908 22.8066 28.4812 22.6138 28.0117C22.4211 27.5422 22.3228 27.0394 22.3246 26.5319Z" fill="#00C293"/>
<path d="M19.4078 18.6651C20.4284 18.6679 21.4068 19.0731 22.1305 19.7928C22.8541 20.5125 23.2647 21.4885 23.2731 22.5091C23.2772 22.5887 23.2617 22.6681 23.2282 22.7405C23.1947 22.8128 23.144 22.8759 23.0807 22.9243C22.2618 23.6187 21.7043 24.5717 21.5003 25.6258C21.4724 25.7375 21.403 25.8344 21.3064 25.897C20.7633 26.2092 20.1522 26.3841 19.5262 26.4068C18.9002 26.4294 18.2782 26.299 17.7139 26.0269C17.1497 25.7548 16.6604 25.3492 16.2883 24.8452C15.9163 24.3413 15.6728 23.7542 15.5789 23.1349C15.4922 22.5822 15.5263 22.0173 15.6789 21.4791C15.8315 20.9409 16.099 20.4422 16.463 20.0174C16.8269 19.5925 17.2786 19.2516 17.787 19.0182C18.2954 18.7847 18.8484 18.6643 19.4078 18.6651Z" fill="#00C293"/>
<path d="M32.581 18.6C34.5689 18.65 36.2872 20.2061 36.4614 22.1606C36.5523 23.1316 36.276 24.1014 35.6869 24.8786C35.0979 25.6559 34.2389 26.1841 33.2795 26.3592C32.5895 26.4731 31.8818 26.4046 31.2264 26.1607C31.1417 26.138 31.0661 26.0894 31.0102 26.0218C30.9542 25.9542 30.9207 25.8709 30.9143 25.7834C30.7817 24.841 30.3523 23.9653 29.6885 23.2834C29.4579 23.0419 29.2041 22.8237 28.9309 22.6319C28.8586 22.5885 28.8019 22.5234 28.7689 22.4458C28.736 22.3682 28.7285 22.2822 28.7475 22.2C28.94 20.6576 29.7339 19.5485 31.1719 18.9546C31.6128 18.7712 32.1083 18.7152 32.581 18.6Z" fill="#00C293"/>
<defs>
<filter id="filter0_b_1347_15448" x="-12" y="-10.4551" width="76" height="80.9103" filterUnits="userSpaceOnUse" color-interpolation-filters="sRGB">
<feFlood flood-opacity="0" result="BackgroundImageFix"/>
<feGaussianBlur in="BackgroundImageFix" stdDeviation="6"/>
<feComposite in2="SourceAlpha" operator="in" result="effect1_backgroundBlur_1347_15448"/>
<feBlend mode="normal" in="SourceGraphic" in2="effect1_backgroundBlur_1347_15448" result="shape"/>
</filter>
</defs>
</svg>
