<svg width="52" height="60" viewBox="0 0 52 60" fill="none" xmlns="http://www.w3.org/2000/svg">
<g filter="url(#filter0_b_1347_15628)">
<path d="M21.0028 2.88301C24.0954 1.09882 27.9046 1.09882 30.9972 2.88301L46.9972 12.1138C50.0928 13.8997 52 17.2018 52 20.7756V39.2244C52 42.7982 50.0928 46.1003 46.9972 47.8862L30.9972 57.117C27.9046 58.9012 24.0954 58.9012 21.0028 57.117L5.00277 47.8862C1.9072 46.1003 0 42.7982 0 39.2244V20.7756C0 17.2018 1.9072 13.8997 5.00278 12.1138L21.0028 2.88301Z" fill="white" fill-opacity="0.5"/>
<path d="M21.2526 3.31611C24.1906 1.62112 27.8094 1.62112 30.7474 3.31611L46.7474 12.5469C49.6882 14.2435 51.5 17.3805 51.5 20.7756V39.2244C51.5 42.6195 49.6882 45.7565 46.7474 47.4531L30.7474 56.6839C27.8094 58.3789 24.1906 58.3789 21.2526 56.6839L5.25264 47.4531C2.31184 45.7565 0.5 42.6195 0.5 39.2244V20.7756C0.5 17.3805 2.31184 14.2435 5.25264 12.5469L21.2526 3.31611Z" stroke="white"/>
</g>
<path d="M36.029 32.1423H32.1571C30.751 32.1423 30.1306 32.6378 29.8772 34.0251C29.7254 34.8278 29.7509 35.654 29.9522 36.4458C30.2111 37.4479 30.8704 37.9587 31.9065 37.9635C33.1794 37.9691 34.4529 37.9635 35.7236 37.9635H36.0151C36.0151 38.9122 36.0151 39.8373 36.0151 40.7596C36.0093 40.8113 35.9981 40.8623 35.9818 40.9116C35.8825 41.3683 35.6308 41.7776 35.2681 42.0722C34.9053 42.3669 34.4531 42.5293 33.9858 42.5328C28.002 42.5356 22.0185 42.5356 16.0352 42.5328C15.4964 42.5266 14.9815 42.3091 14.6015 41.9271C14.2214 41.5452 14.0065 41.0292 14.0031 40.4904C13.999 36.8617 13.999 33.2328 14.0031 29.6037C14.0089 29.0649 14.2262 28.5499 14.6082 28.1698C14.9901 27.7897 15.5061 27.5749 16.0449 27.5717C22.0287 27.5689 28.0122 27.5689 33.9955 27.5717C34.5291 27.5782 35.0392 27.7917 35.4184 28.1672C35.7975 28.5427 36.0159 29.0508 36.0276 29.5842C36.0352 30.4281 36.029 31.2672 36.029 32.1423Z" fill="#F2094D"/>
<path d="M17.5967 26.7375L19.4289 25.1309C21.2194 23.5624 23.01 21.9945 24.8005 20.427C25.3772 19.9245 26.1386 19.9675 26.5814 20.5568C26.7468 20.7855 26.847 21.0549 26.8714 21.3361C26.9152 21.8864 26.8916 22.443 26.8784 22.9968C26.8729 23.047 26.8563 23.0954 26.8299 23.1385C26.8035 23.1816 26.7679 23.2183 26.7257 23.246C24.4424 24.3938 22.1561 25.5362 19.8668 26.6729C19.8073 26.7075 19.741 26.7286 19.6725 26.7347C19.0076 26.7389 18.3434 26.7375 17.5967 26.7375Z" fill="#F2094D"/>
<path d="M34.3689 32.9757C35.1906 32.9757 36.013 32.9757 36.8354 32.9757C37.5766 32.9757 38.1047 33.5094 38.1075 34.2541C38.1075 34.782 38.1075 35.3099 38.1075 35.8378C38.1075 36.6012 37.5801 37.1293 36.8229 37.13C35.2035 37.13 33.5842 37.13 31.9648 37.13C31.2014 37.13 30.8822 36.8836 30.7225 36.1279C30.5673 35.3974 30.5711 34.6422 30.7336 33.9133C30.8849 33.2332 31.2264 32.9771 31.926 32.9764C32.7407 32.9751 33.555 32.9748 34.3689 32.9757ZM34.7853 35.0536C34.7807 34.6161 34.606 34.1976 34.2982 33.8867C33.9904 33.5759 33.5737 33.397 33.1363 33.388C32.6942 33.3898 32.2706 33.5655 31.9571 33.8772C31.6436 34.1889 31.4653 34.6115 31.461 35.0536C31.4655 35.4955 31.6437 35.9178 31.957 36.2295C32.2704 36.5411 32.6937 36.717 33.1356 36.7192C33.5727 36.7096 33.989 36.5305 34.2964 36.2197C34.6039 35.9089 34.7784 35.4907 34.7832 35.0536H34.7853Z" fill="#F2094D"/>
<path d="M34.7651 21.3333C34.4646 21.3333 34.1794 21.3486 33.8969 21.3257C33.7845 21.3167 33.6283 21.2501 33.5839 21.1626C33.5395 21.0752 33.5714 20.9024 33.6346 20.8156C34.249 19.9689 34.8715 19.1283 35.5022 18.2936C35.7909 17.9106 36.2434 17.8988 36.5321 18.2791C37.1761 19.1257 37.8095 19.9798 38.4323 20.8413C38.4634 20.8889 38.4833 20.9429 38.4905 20.9993C38.4977 21.0556 38.4921 21.1129 38.4739 21.1668C38.4316 21.2501 38.2893 21.3195 38.1859 21.3271C37.8951 21.3486 37.6015 21.3347 37.2941 21.3347C37.2198 23.2835 36.3988 24.8082 34.7894 25.9151L33.1127 24.6576C33.7324 24.3231 34.212 23.8872 34.509 23.2786C34.8173 22.6795 34.9078 21.9918 34.7651 21.3333Z" fill="#F2094D"/>
<path d="M30.6219 26.7277H21.6323C21.7482 26.6583 21.81 26.6222 21.8745 26.5889C24.153 25.4528 26.4432 24.3278 28.7099 23.1703C29.5635 22.7358 30.431 23.2091 30.5962 23.9337C30.6086 23.9748 30.6167 24.0171 30.6205 24.06C30.6219 24.9455 30.6219 25.8262 30.6219 26.7277Z" fill="#F2094D"/>
<path d="M33.1204 34.2236C33.231 34.222 33.3408 34.2429 33.4432 34.2848C33.5456 34.3267 33.6384 34.3889 33.7162 34.4675C33.794 34.5462 33.855 34.6398 33.8958 34.7426C33.9365 34.8455 33.9561 34.9555 33.9532 35.0661C33.9527 35.1746 33.9307 35.282 33.8885 35.3819C33.8462 35.4819 33.7846 35.5725 33.7072 35.6486C33.6298 35.7247 33.5381 35.7846 33.4374 35.8251C33.3367 35.8656 33.229 35.8857 33.1204 35.8843C33.0098 35.8856 32.8999 35.8646 32.7976 35.8226C32.6952 35.7805 32.6023 35.7182 32.5246 35.6394C32.4468 35.5606 32.3858 35.467 32.3451 35.3641C32.3043 35.2611 32.2848 35.151 32.2876 35.0404C32.2879 34.9319 32.3097 34.8244 32.3519 34.7244C32.394 34.6244 32.4556 34.5337 32.5331 34.4577C32.6106 34.3817 32.7024 34.3219 32.8033 34.2817C32.9041 34.2415 33.0119 34.2217 33.1204 34.2236Z" fill="#F2094D"/>
<defs>
<filter id="filter0_b_1347_15628" x="-12" y="-10.4551" width="76" height="80.9103" filterUnits="userSpaceOnUse" color-interpolation-filters="sRGB">
<feFlood flood-opacity="0" result="BackgroundImageFix"/>
<feGaussianBlur in="BackgroundImageFix" stdDeviation="6"/>
<feComposite in2="SourceAlpha" operator="in" result="effect1_backgroundBlur_1347_15628"/>
<feBlend mode="normal" in="SourceGraphic" in2="effect1_backgroundBlur_1347_15628" result="shape"/>
</filter>
</defs>
</svg>
