<svg width="52" height="60" viewBox="0 0 52 60" fill="none" xmlns="http://www.w3.org/2000/svg">
<g filter="url(#filter0_b_1347_15645)">
<path d="M21.0028 2.88301C24.0954 1.09882 27.9046 1.09882 30.9972 2.88301L46.9972 12.1138C50.0928 13.8997 52 17.2018 52 20.7756V39.2244C52 42.7982 50.0928 46.1003 46.9972 47.8862L30.9972 57.117C27.9046 58.9012 24.0954 58.9012 21.0028 57.117L5.00277 47.8862C1.9072 46.1003 0 42.7982 0 39.2244V20.7756C0 17.2018 1.9072 13.8997 5.00278 12.1138L21.0028 2.88301Z" fill="white" fill-opacity="0.5"/>
<path d="M21.2526 3.31611C24.1906 1.62112 27.8094 1.62112 30.7474 3.31611L46.7474 12.5469C49.6882 14.2435 51.5 17.3805 51.5 20.7756V39.2244C51.5 42.6195 49.6882 45.7565 46.7474 47.4531L30.7474 56.6839C27.8094 58.3789 24.1906 58.3789 21.2526 56.6839L5.25264 47.4531C2.31184 45.7565 0.5 42.6195 0.5 39.2244V20.7756C0.5 17.3805 2.31184 14.2435 5.25264 12.5469L21.2526 3.31611Z" stroke="white"/>
</g>
<path d="M21.9987 26.7464C20.5888 26.7464 19.2585 26.7464 17.9281 26.7464C17.4759 26.7464 17.1501 26.9503 17.0135 27.3082C16.8046 27.8568 17.1772 28.4369 17.7777 28.4946C17.8595 28.5019 17.942 28.4946 18.0239 28.4946H32.6975C32.6975 28.1556 32.7238 27.8371 32.6916 27.5245C32.6434 27.0489 32.2679 26.7457 31.7609 26.7435C30.5029 26.7399 29.2449 26.7435 27.9869 26.7435H27.6567C28.1572 26.2438 28.6211 25.8106 29.0448 25.3431C29.2858 25.0801 29.5342 24.9691 29.8951 24.9866C30.5592 25.0173 31.2254 24.9903 31.8909 24.9968C33.2819 25.01 34.4383 26.173 34.4508 27.5668C34.4508 27.8678 34.4405 28.1688 34.4581 28.469C34.4634 28.5173 34.4793 28.5638 34.5045 28.6054C34.5298 28.6469 34.5638 28.6824 34.6042 28.7094C35.6832 29.2302 36.2172 30.082 36.2041 31.2801C36.1989 31.798 36.2041 32.3159 36.2041 32.8689H35.8965C34.5655 32.8689 33.2344 32.8646 31.9041 32.8689C30.5051 32.8755 29.4568 33.7799 29.2362 35.1548C29.0214 36.4916 30.02 37.8621 31.3635 38.0652C31.5884 38.0992 31.8155 38.1165 32.0429 38.117C33.3192 38.1221 34.5954 38.117 35.8717 38.117H36.2106C36.1536 38.9564 36.3224 39.7863 36.0967 40.6008C35.9457 41.1452 35.6202 41.625 35.1702 41.9665C34.7201 42.308 34.1705 42.4924 33.6055 42.4914C28.3359 42.4943 23.067 42.4943 17.7988 42.4914C17.1119 42.49 16.4533 42.2169 15.967 41.7317C15.4807 41.2465 15.2061 40.5886 15.2032 39.9017C15.1989 35.8005 15.1989 31.6991 15.2032 27.5975C15.2037 27.2552 15.2716 26.9163 15.4031 26.6003C15.5346 26.2842 15.7271 25.9971 15.9696 25.7555C16.212 25.5138 16.4997 25.3223 16.8162 25.1919C17.1328 25.0615 17.4719 24.9947 17.8142 24.9954C18.5623 24.9915 19.3098 24.9915 20.0569 24.9954C20.1417 24.9954 20.2535 25.0056 20.3075 25.0575C20.8627 25.601 21.4026 26.1496 21.9987 26.7464Z" fill="#12BF00"/>
<path d="M25.7018 22.3729C26.2797 22.3729 26.8247 22.3729 27.3696 22.3729C27.808 22.3729 28.1228 22.5584 28.2616 22.9178C28.4077 23.2984 28.3172 23.6308 28.0315 23.9157C27.1804 24.7661 26.333 25.62 25.4746 26.466C25.0706 26.8656 24.5717 26.8605 24.167 26.458C23.3195 25.6174 22.475 24.7734 21.6334 23.926C21.3193 23.6097 21.2346 23.2605 21.3953 22.9083C21.5684 22.5277 21.8738 22.3612 22.2931 22.37C22.8301 22.3809 23.3678 22.37 23.9507 22.37V22.0777C23.9507 21.0302 23.9507 19.9831 23.9507 18.9365C23.9507 18.3798 24.3116 17.9985 24.8274 18C25.3431 18.0014 25.696 18.3879 25.696 18.9497C25.7026 20.0747 25.7018 21.2033 25.7018 22.3729Z" fill="#12BF00"/>
<path d="M36.1938 34.6237V36.3565C36.1061 36.3623 36.0272 36.3711 35.9483 36.3711C34.6012 36.3711 33.2543 36.3711 31.9077 36.3711C31.3364 36.3711 30.95 36.0058 30.958 35.4828C30.9631 34.9714 31.3496 34.6244 31.9114 34.6237H36.1938Z" fill="#12BF00"/>
<defs>
<filter id="filter0_b_1347_15645" x="-12" y="-10.4551" width="76" height="80.9103" filterUnits="userSpaceOnUse" color-interpolation-filters="sRGB">
<feFlood flood-opacity="0" result="BackgroundImageFix"/>
<feGaussianBlur in="BackgroundImageFix" stdDeviation="6"/>
<feComposite in2="SourceAlpha" operator="in" result="effect1_backgroundBlur_1347_15645"/>
<feBlend mode="normal" in="SourceGraphic" in2="effect1_backgroundBlur_1347_15645" result="shape"/>
</filter>
</defs>
</svg>
