<svg width="52" height="60" viewBox="0 0 52 60" fill="none" xmlns="http://www.w3.org/2000/svg">
<g filter="url(#filter0_b_1347_15611)">
<path d="M21.0028 2.88301C24.0954 1.09882 27.9046 1.09882 30.9972 2.88301L46.9972 12.1138C50.0928 13.8997 52 17.2018 52 20.7756V39.2244C52 42.7982 50.0928 46.1003 46.9972 47.8862L30.9972 57.117C27.9046 58.9012 24.0954 58.9012 21.0028 57.117L5.00277 47.8862C1.9072 46.1003 0 42.7982 0 39.2244V20.7756C0 17.2018 1.9072 13.8997 5.00278 12.1138L21.0028 2.88301Z" fill="white" fill-opacity="0.5"/>
<path d="M21.2526 3.31611C24.1906 1.62112 27.8094 1.62112 30.7474 3.31611L46.7474 12.5469C49.6882 14.2435 51.5 17.3805 51.5 20.7756V39.2244C51.5 42.6195 49.6882 45.7565 46.7474 47.4531L30.7474 56.6839C27.8094 58.3789 24.1906 58.3789 21.2526 56.6839L5.25264 47.4531C2.31184 45.7565 0.5 42.6195 0.5 39.2244V20.7756C0.5 17.3805 2.31184 14.2435 5.25264 12.5469L21.2526 3.31611Z" stroke="white"/>
</g>
<path d="M20.1969 39.3615C18.4964 38.9885 17.5378 38.1019 17.3278 36.7808C17.1291 35.5464 17.7064 33.9923 19.3613 33.3303C19.1649 32.5154 18.9676 31.699 18.7693 30.8812C17.9408 27.4459 17.1135 24.0104 16.2873 20.5746C16.2292 20.329 16.1396 20.2317 15.8744 20.2436C15.3517 20.2674 14.8248 20.252 14.3027 20.2499C13.7667 20.2499 13.3972 19.9 13.4 19.4102C13.4 18.9323 13.7702 18.588 14.2908 18.5845C14.8758 18.5812 15.4609 18.5812 16.0459 18.5845C16.9556 18.5887 17.6315 19.1219 17.8449 20.0008C18.1165 21.1204 18.388 22.2337 18.6455 23.354C18.6994 23.5863 18.7812 23.6766 19.0388 23.6689C19.7973 23.6472 20.5572 23.6612 21.3389 23.6612V25.3154H19.129C19.3075 26.0592 19.4789 26.7597 19.6503 27.4846C20.1472 27.4846 20.6433 27.4909 21.1387 27.4811C21.3277 27.4776 21.434 27.5252 21.5502 27.7001C21.707 27.9367 21.9519 28.1137 22.1632 28.3208H19.8575C20.0016 28.9268 20.1374 29.4992 20.2773 30.0884H23.562V29.0633C23.851 29.2305 24.1016 29.3634 24.336 29.5195C24.3885 29.5545 24.399 29.6685 24.406 29.7483C24.412 29.856 24.412 29.9639 24.406 30.0716C24.8202 30.1885 25.2639 29.9876 25.6522 30.2619C25.9902 30.5005 26.366 30.6853 26.7152 30.9498H24.4276V33.1624H27.3345V31.2808H28.2043V33.1624H31.1167V30.9645H28.8439L28.8285 30.8945C29.5408 30.5152 30.158 29.8799 31.1006 30.136C31.1293 29.9065 31.0866 29.6524 31.1909 29.5517C31.3966 29.3544 31.6807 29.2417 31.9781 29.071V30.0849H35.1271C35.3034 29.5118 35.4818 28.9331 35.6687 28.3271H33.4294C33.6492 28.0689 33.8738 27.7953 34.1117 27.5336C34.1523 27.4888 34.2517 27.4853 34.3216 27.4846C34.7933 27.4804 35.2649 27.4846 35.7366 27.4783C35.8107 27.4783 35.9339 27.4405 35.9465 27.393C36.1676 26.7163 36.3734 26.0347 36.5924 25.3238H34.2132V23.657H34.4567C35.5133 23.657 36.57 23.657 37.6266 23.657C38.3138 23.657 38.6861 24.1552 38.4845 24.8095C37.6961 27.372 36.9059 29.9337 36.1137 32.4948C35.6379 34.0301 34.5274 34.8334 32.8871 34.8341C28.7818 34.8341 24.6765 34.8341 20.5712 34.8341C20.3709 34.8282 20.1707 34.8487 19.9757 34.895C19.6533 34.985 19.3731 35.1862 19.1847 35.4629C18.9963 35.7397 18.9119 36.0741 18.9464 36.4071C19.0199 37.0992 19.6007 37.6394 20.3186 37.6898C20.6468 37.7129 20.9106 37.6597 21.1891 37.4155C22.2591 36.4785 23.7972 36.5583 24.8209 37.5456C24.9134 37.6301 25.0324 37.6796 25.1575 37.6856C26.9909 37.694 28.8245 37.694 30.6584 37.6856C30.7832 37.6815 30.9028 37.634 30.9963 37.5512C31.8627 36.7192 33.0775 36.5261 34.139 37.0614C35.1313 37.5638 35.7317 38.6813 35.5959 39.7715C35.527 40.3431 35.279 40.8783 34.8875 41.3005C34.496 41.7227 33.981 42.0102 33.4161 42.122C31.8067 42.4446 30.256 41.2053 30.2105 39.5651C30.2105 39.5056 30.2056 39.4454 30.2021 39.3671H25.6319C25.6277 40.2823 25.2905 41.0409 24.5718 41.6063C24.0866 41.9871 23.483 42.1852 22.8665 42.1661C21.693 42.1591 20.2661 41.2844 20.1969 39.3615ZM20.4922 30.9687C20.6615 31.6635 20.8281 32.3178 20.9757 32.977C21.0121 33.14 21.0779 33.1869 21.236 33.1869C21.9505 33.1799 22.6649 33.1869 23.3794 33.1827C23.4371 33.179 23.4944 33.1711 23.5508 33.1589V30.9708L20.4922 30.9687ZM34.8745 30.9722H32.0054V33.1477C32.4701 33.1477 32.9228 33.1764 33.37 33.14C33.5774 33.1276 33.7774 33.0586 33.9484 32.9405C34.1193 32.8225 34.2547 32.6599 34.3398 32.4703C34.5519 32.0001 34.6904 31.497 34.8745 30.9722ZM22.9336 38.3769C22.6427 38.3773 22.3636 38.4925 22.1572 38.6976C21.9508 38.9027 21.8337 39.1811 21.8315 39.472C21.8328 39.7631 21.9489 40.0418 22.1547 40.2477C22.3604 40.4535 22.6391 40.5699 22.9302 40.5713C23.2167 40.5662 23.4902 40.4507 23.6937 40.2489C23.8972 40.0471 24.015 39.7746 24.0225 39.4881C24.0227 39.1972 23.9088 38.9178 23.7052 38.71C23.5016 38.5022 23.2245 38.3826 22.9336 38.3769ZM33.9983 39.4741C33.9994 39.3305 33.972 39.188 33.9177 39.055C33.8634 38.922 33.7834 38.801 33.6822 38.699C33.581 38.597 33.4606 38.5161 33.328 38.4608C33.1954 38.4055 33.0532 38.377 32.9095 38.3769C32.7655 38.3777 32.6231 38.4072 32.4906 38.4635C32.3581 38.5198 32.2381 38.602 32.1376 38.7051C32.0372 38.8083 31.9582 38.9304 31.9053 39.0643C31.8525 39.1982 31.8268 39.3414 31.8298 39.4853C31.8314 39.7714 31.9452 40.0454 32.1467 40.2485C32.3482 40.4516 32.6213 40.5675 32.9074 40.5713C33.0511 40.571 33.1933 40.5423 33.3259 40.4869C33.4585 40.4316 33.5789 40.3507 33.6802 40.2488C33.7815 40.1469 33.8618 40.026 33.9164 39.8931C33.9709 39.7602 33.9988 39.6178 33.9983 39.4741Z" fill="#047FE3"/>
<path d="M29.7655 19.0599L26.4206 20.9898C25.7341 21.3858 25.0449 21.7791 24.3647 22.187C24.3185 22.2173 24.2793 22.2572 24.2497 22.3039C24.2201 22.3506 24.2009 22.4031 24.1933 22.4578C24.1793 23.1821 24.1828 23.907 24.1933 24.6313C24.1929 24.6757 24.2019 24.7197 24.2196 24.7604C24.2373 24.8012 24.2634 24.8377 24.2961 24.8678C24.7706 25.1561 25.2548 25.4276 25.7747 25.7285C25.7817 25.5983 25.7901 25.5081 25.7908 25.4178C25.7908 24.7635 25.7957 24.1086 25.7908 23.4536C25.7908 23.2877 25.8307 23.1856 25.984 23.0981C27.731 22.0975 29.4751 21.0912 31.2161 20.0794C31.264 20.0445 31.3217 20.0257 31.3809 20.0257C31.4401 20.0257 31.4978 20.0445 31.5457 20.0794C32.0474 20.3789 32.5548 20.6679 33.0635 20.9548C33.1609 21.0033 33.2418 21.0797 33.2957 21.1743C33.3497 21.2688 33.3743 21.3773 33.3665 21.4859C33.3604 23.3985 33.3604 25.3112 33.3665 27.2238C33.3665 27.4834 33.2664 27.6437 33.046 27.7689C31.3983 28.7141 29.7531 29.6643 28.1105 30.6197C28.0133 30.6853 27.8986 30.7203 27.7813 30.7203C27.664 30.7203 27.5494 30.6853 27.4521 30.6197C25.8193 29.669 24.1811 28.7234 22.5376 27.7829C22.2976 27.643 22.1982 27.4743 22.1996 27.1944C22.209 25.3 22.209 23.406 22.1996 21.5125C22.1906 21.3959 22.2169 21.2793 22.2752 21.1779C22.3335 21.0765 22.4211 20.9951 22.5264 20.9443C24.1681 20.0038 25.8062 19.058 27.4409 18.1068C27.6802 17.9669 27.8845 17.962 28.1217 18.1068C28.6452 18.4217 29.184 18.724 29.7655 19.0599Z" fill="#047FE3"/>
<defs>
<filter id="filter0_b_1347_15611" x="-12" y="-10.4551" width="76" height="80.9103" filterUnits="userSpaceOnUse" color-interpolation-filters="sRGB">
<feFlood flood-opacity="0" result="BackgroundImageFix"/>
<feGaussianBlur in="BackgroundImageFix" stdDeviation="6"/>
<feComposite in2="SourceAlpha" operator="in" result="effect1_backgroundBlur_1347_15611"/>
<feBlend mode="normal" in="SourceGraphic" in2="effect1_backgroundBlur_1347_15611" result="shape"/>
</filter>
</defs>
</svg>
