<svg width="52" height="60" viewBox="0 0 52 60" fill="none" xmlns="http://www.w3.org/2000/svg">
<g filter="url(#filter0_b_1347_15593)">
<path d="M21.0028 2.88301C24.0954 1.09882 27.9046 1.09882 30.9972 2.88301L46.9972 12.1138C50.0928 13.8997 52 17.2018 52 20.7756V39.2244C52 42.7982 50.0928 46.1003 46.9972 47.8862L30.9972 57.117C27.9046 58.9012 24.0954 58.9012 21.0028 57.117L5.00277 47.8862C1.9072 46.1003 0 42.7982 0 39.2244V20.7756C0 17.2018 1.9072 13.8997 5.00278 12.1138L21.0028 2.88301Z" fill="white" fill-opacity="0.5"/>
<path d="M21.2526 3.31611C24.1906 1.62112 27.8094 1.62112 30.7474 3.31611L46.7474 12.5469C49.6882 14.2435 51.5 17.3805 51.5 20.7756V39.2244C51.5 42.6195 49.6882 45.7565 46.7474 47.4531L30.7474 56.6839C27.8094 58.3789 24.1906 58.3789 21.2526 56.6839L5.25264 47.4531C2.31184 45.7565 0.5 42.6195 0.5 39.2244V20.7756C0.5 17.3805 2.31184 14.2435 5.25264 12.5469L21.2526 3.31611Z" stroke="white"/>
</g>
<path d="M38.0111 24.7711C37.9472 25.0971 37.891 25.4251 37.8136 25.7479C37.1967 28.3394 34.8967 30.369 32.2616 30.7129C30.5924 30.9338 28.9014 30.5144 27.5288 29.539C26.1562 28.5637 25.2039 27.1048 24.8635 25.4557C24.1284 21.9175 26.4131 18.4241 29.968 17.6442C30.2237 17.5886 30.4794 17.5451 30.7351 17.4965H31.9797C32.0961 17.5163 32.2131 17.5349 32.3294 17.5566C35.1319 18.0814 36.9608 19.7006 37.7874 22.4328C37.8942 22.7875 37.9376 23.1609 38.0105 23.5259L38.0111 24.7711ZM30.3081 24.4272C30.2442 24.3709 30.2058 24.3351 30.1674 24.2993C29.7947 23.9279 29.424 23.5546 29.05 23.1845C28.8039 22.941 28.5086 22.8182 28.1608 22.877C27.9734 22.9013 27.7969 22.979 27.6525 23.1008C27.5081 23.2227 27.4018 23.3836 27.3464 23.5642C27.2115 23.965 27.3176 24.3204 27.6104 24.6164C28.2663 25.2787 28.9256 25.9382 29.5883 26.5949C30.0767 27.0794 30.6993 27.059 31.1583 26.5444C31.5291 26.1276 31.8941 25.7063 32.2616 25.2863C33.0594 24.3756 33.8572 23.4641 34.655 22.5517C35.0642 22.0818 35.0386 21.4694 34.5981 21.0814C34.1577 20.6934 33.5446 20.7515 33.1278 21.2092C32.9508 21.401 32.7807 21.6043 32.6075 21.8025C31.8487 22.6674 31.088 23.538 30.3068 24.4272H30.3081Z" fill="#9C39FF"/>
<path d="M36.6355 31.0356C36.4437 31.9549 36.2564 32.8332 36.071 33.7115C36.0333 33.8905 35.9988 34.0707 35.954 34.2478C35.9176 34.417 35.8256 34.5691 35.6928 34.68C35.5599 34.7908 35.3938 34.854 35.2208 34.8596C35.1332 34.8653 35.0456 34.8596 34.9574 34.8596H19.977C19.4925 34.8596 19.1844 35.1076 19.139 35.5295C19.1259 35.6285 19.133 35.7291 19.1597 35.8253C19.1865 35.9215 19.2324 36.0113 19.2947 36.0894C19.3571 36.1674 19.4345 36.232 19.5224 36.2794C19.6103 36.3267 19.7069 36.3559 19.8064 36.365C19.9175 36.3754 20.0291 36.3795 20.1407 36.3771C25.0941 36.3771 30.0477 36.3771 35.0015 36.3771C35.1602 36.3708 35.3188 36.3887 35.472 36.4302C35.8115 36.5389 36.0045 36.8777 35.963 37.2408C35.9426 37.4178 35.8616 37.5823 35.7336 37.7063C35.6056 37.8303 35.4387 37.9061 35.2611 37.9209C35.1973 37.9257 35.1332 37.927 35.0693 37.9247C30.0443 37.9247 25.0189 37.9247 19.993 37.9247C18.8277 37.9247 17.925 37.2388 17.6514 36.1553C17.3094 34.8033 18.306 33.4264 19.6971 33.335C19.9406 33.319 20.1861 33.335 20.4642 33.335C20.3644 32.8511 20.2762 32.417 20.1848 31.9843C19.5059 28.7625 18.8272 25.5405 18.1488 22.3183C17.9659 21.4451 17.5395 21.0877 16.6401 21.0864C15.8583 21.0864 15.0765 21.0864 14.2953 21.0807C14.1141 21.0844 13.9371 21.0255 13.7943 20.9139C13.6514 20.8024 13.5513 20.645 13.5109 20.4683C13.4736 20.2954 13.4978 20.1148 13.5796 19.9579C13.6613 19.801 13.7953 19.6777 13.9584 19.6092C14.0848 19.5614 14.2191 19.5382 14.3541 19.5408C15.1992 19.5408 16.045 19.5408 16.8901 19.558C18.2472 19.5861 19.3384 20.5035 19.6184 21.8337C19.7271 22.3451 19.853 22.8565 19.9381 23.3749C19.9745 23.598 20.0697 23.6306 20.2654 23.6306C20.9909 23.621 21.7171 23.6268 22.4427 23.6268H22.6984C22.3602 31.0286 30.6974 35.4969 36.6355 31.0356Z" fill="#9C39FF"/>
<path d="M25.7572 40.4779C25.757 40.6793 25.7168 40.8786 25.6389 41.0644C25.561 41.2501 25.447 41.4185 25.3035 41.5598C25.16 41.7011 24.9898 41.8125 24.8029 41.8875C24.616 41.9625 24.4161 41.9996 24.2147 41.9968C24.0133 41.9965 23.814 41.9563 23.6283 41.8784C23.4425 41.8005 23.2741 41.6865 23.1328 41.543C22.9915 41.3995 22.8801 41.2294 22.8051 41.0425C22.7301 40.8556 22.693 40.6556 22.6958 40.4543C22.696 40.2529 22.7362 40.0535 22.814 39.8678C22.8919 39.6821 23.0059 39.5137 23.1495 39.3724C23.293 39.2312 23.4632 39.1198 23.6501 39.0449C23.837 38.97 24.037 38.933 24.2384 38.9361C24.4397 38.9362 24.6391 38.9764 24.8248 39.0542C25.0105 39.132 25.1789 39.246 25.3202 39.3894C25.4615 39.5329 25.5729 39.7029 25.6479 39.8898C25.723 40.0767 25.7601 40.2766 25.7572 40.4779Z" fill="#9C39FF"/>
<path d="M32.394 38.9373C32.8007 38.9365 33.1912 39.0968 33.48 39.3833C33.7687 39.6698 33.9322 40.059 33.9346 40.4658C33.9334 40.8723 33.7714 41.2618 33.4839 41.5493C33.1964 41.8367 32.8069 41.9988 32.4003 41.9999C32.1989 42.0013 31.9992 41.9627 31.8128 41.8864C31.6264 41.8101 31.457 41.6976 31.3143 41.5554C31.1716 41.4132 31.0585 41.2442 30.9816 41.058C30.9047 40.8718 30.8654 40.6723 30.8661 40.4709C30.8648 40.2696 30.9033 40.07 30.9796 39.8837C31.0558 39.6974 31.1682 39.5281 31.3102 39.3855C31.4523 39.2429 31.6212 39.1299 31.8072 39.053C31.9933 38.976 32.1927 38.9367 32.394 38.9373Z" fill="#9C39FF"/>
<defs>
<filter id="filter0_b_1347_15593" x="-12" y="-10.4551" width="76" height="80.9103" filterUnits="userSpaceOnUse" color-interpolation-filters="sRGB">
<feFlood flood-opacity="0" result="BackgroundImageFix"/>
<feGaussianBlur in="BackgroundImageFix" stdDeviation="6"/>
<feComposite in2="SourceAlpha" operator="in" result="effect1_backgroundBlur_1347_15593"/>
<feBlend mode="normal" in="SourceGraphic" in2="effect1_backgroundBlur_1347_15593" result="shape"/>
</filter>
</defs>
</svg>
